<svg xmlns="http://www.w3.org/2000/svg" viewBox="114.6 117.1 1050.9 1050.9" role="img" aria-label="My Signet Lite">
  <!-- My Signet Lite app icon: same geometry as branding/mysignet/svg/mysignet-app-icon.svg,
       but ivory (not navy) so the Lite edition reads distinctly from the full app. -->
  <rect x="114.6" y="117.1" width="1050.9" height="1050.9" rx="231.2" fill="#FAF7ED"/>
  <g>
    <circle cx="640.0" cy="642.5" r="403.0" fill="none" stroke="#C9A962" stroke-width="15.0"/>
    <path d="M516.00 701.15 A251.5 251.5 0 0 1 328.50 463.90 C435.80 423.88 559.59 482.13 640.00 562.00 C757.04 678.25 778.04 873.34 640.00 971.77 C501.96 873.34 522.96 678.25 640.00 562.00 C720.41 482.13 844.20 423.88 951.50 463.90 A251.5 251.5 0 0 1 764.00 701.15" fill="none" stroke="#0E2A47" stroke-width="28.0" stroke-linejoin="miter" stroke-miterlimit="10" stroke-linecap="butt"/>
    <path d="M569.00 715.53 A271.0 271.0 0 0 0 711.00 715.53" fill="none" stroke="#C9A962" stroke-width="28.0" stroke-linecap="butt"/>
    <circle cx="640.0" cy="389.0" r="72.0" fill="#C9A962"/>
  </g>
</svg>
